<?xml version="1.0" encoding="iso-8859-1"?>
<!-- Generator: Adobe Illustrator 19.0.0, SVG Export Plug-In . SVG Version: 6.00 Build 0)  -->
<svg version="1.1" id="Layer_1" xmlns="http://www.w3.org/2000/svg" xmlns:xlink="http://www.w3.org/1999/xlink" x="0px" y="0px"
	 viewBox="0 0 330 330" style="enable-background:new 0 0 330 330;" xml:space="preserve">
<g id="XMLID_19_">
	<path id="XMLID_20_" d="M307.5,150h-60c-8.284,0-15,6.716-15,15s6.716,15,15,15h60c8.284,0,15-6.716,15-15S315.784,150,307.5,150z"
		/>
	<path id="XMLID_21_" d="M52.5,150h-30c-8.284,0-15,6.716-15,15s6.716,15,15,15h30c8.284,0,15-6.716,15-15S60.784,150,52.5,150z"/>
	<path id="XMLID_22_" d="M157.5,240c-8.284,0-15,6.716-15,15v60c0,8.284,6.716,15,15,15c8.284,0,15-6.716,15-15v-60
		C172.5,246.716,165.784,240,157.5,240z"/>
	<path id="XMLID_23_" d="M157.5,0c-8.284,0-15,6.716-15,15v60c0,8.284,6.716,15,15,15c8.284,0,15-6.716,15-15V15
		C172.5,6.716,165.784,0,157.5,0z"/>
	<path id="XMLID_24_" d="M231.746,218.033c-5.857-5.858-15.355-5.858-21.213,0c-5.858,5.858-5.858,15.355,0,21.213l42.427,42.427
		c2.929,2.929,6.767,4.393,10.606,4.393s7.678-1.464,10.607-4.393c5.858-5.858,5.858-15.355,0-21.213L231.746,218.033z"/>
	<path id="XMLID_25_" d="M62.04,48.328c-5.857-5.857-15.355-5.858-21.213,0c-5.858,5.858-5.858,15.356,0,21.213l42.427,42.426
		c2.929,2.929,6.768,4.393,10.606,4.393c3.839,0,7.678-1.464,10.607-4.394c5.857-5.858,5.857-15.355,0-21.213L62.04,48.328z"/>
	<path id="XMLID_26_" d="M221.14,116.36c3.838,0,7.678-1.465,10.607-4.393l42.427-42.426c5.858-5.858,5.858-15.355,0-21.213
		c-5.859-5.858-15.355-5.857-21.213,0l-42.427,42.426c-5.858,5.858-5.858,15.355,0,21.213
		C213.462,114.896,217.3,116.36,221.14,116.36z"/>
</g>
<g>
</g>
<g>
</g>
<g>
</g>
<g>
</g>
<g>
</g>
<g>
</g>
<g>
</g>
<g>
</g>
<g>
</g>
<g>
</g>
<g>
</g>
<g>
</g>
<g>
</g>
<g>
</g>
<g>
</g>
</svg>
